<svg width="1920" height="80" viewBox="0 0 1920 80" fill="none" xmlns="http://www.w3.org/2000/svg">
  <path d="M0 0H1920V80H0V0Z" fill="none"/>
  <g opacity="0.8">
    <path d="M0 40C60 10 120 30 180 40C240 50 300 30 360 20C420 10 480 30 540 40C600 50 660 30 720 20C780 10 840 30 900 40C960 50 1020 30 1080 20C1140 10 1200 30 1260 40C1320 50 1380 30 1440 20C1500 10 1560 30 1620 40C1680 50 1740 30 1800 20C1860 10 1920 30 1920 30V0H0V40Z" fill="#5a6b46" opacity="0.2"/>
    <path d="M0 60C60 30 120 50 180 60C240 70 300 50 360 40C420 30 480 50 540 60C600 70 660 50 720 40C780 30 840 50 900 60C960 70 1020 50 1080 40C1140 30 1200 50 1260 60C1320 70 1380 50 1440 40C1500 30 1560 50 1620 60C1680 70 1740 50 1800 40C1860 30 1920 50 1920 50V20H0V60Z" fill="#5a6b46" opacity="0.2"/>
    
    <!-- Leaf decorations -->
    <path d="M200 30C210 20 230 25 240 35C230 40 210 40 200 30Z" fill="#5a6b46" opacity="0.6"/>
    <path d="M600 25C610 15 630 20 640 30C630 35 610 35 600 25Z" fill="#5a6b46" opacity="0.6"/>
    <path d="M1000 30C1010 20 1030 25 1040 35C1030 40 1010 40 1000 30Z" fill="#5a6b46" opacity="0.6"/>
    <path d="M1400 25C1410 15 1430 20 1440 30C1430 35 1410 35 1400 25Z" fill="#5a6b46" opacity="0.6"/>
    <path d="M1800 30C1810 20 1830 25 1840 35C1830 40 1810 40 1800 30Z" fill="#5a6b46" opacity="0.6"/>
    
    <!-- Small dots -->
    <circle cx="400" cy="30" r="4" fill="#5a6b46" opacity="0.6"/>
    <circle cx="800" cy="25" r="4" fill="#5a6b46" opacity="0.6"/>
    <circle cx="1200" cy="30" r="4" fill="#5a6b46" opacity="0.6"/>
    <circle cx="1600" cy="25" r="4" fill="#5a6b46" opacity="0.6"/>
  </g>
</svg> 