<svg width="160" height="160" viewBox="0 0 160 160" fill="none" xmlns="http://www.w3.org/2000/svg">
  <path d="M160 80C160 124.183 124.183 160 80 160C35.8172 160 0 124.183 0 80C0 35.8172 35.8172 0 80 0C124.183 0 160 35.8172 160 80Z" fill="none"/>
  <g opacity="0.8">
    <path d="M150 90C130 110 100 120 70 110C100 100 120 80 150 90Z" fill="#5a6b46" opacity="0.6"/>
    <path d="M155 70C135 80 105 80 85 60C115 60 135 50 155 70Z" fill="#5a6b46" opacity="0.6"/>
    <path d="M140 120C120 130 90 120 80 90C110 100 130 100 140 120Z" fill="#5a6b46" opacity="0.6"/>
    <path d="M130 140C110 140 90 120 90 90C110 110 130 120 130 140Z" fill="#5a6b46" opacity="0.6"/>
    <path d="M110 150C90 140 80 110 90 80C100 100 120 120 110 150Z" fill="#5a6b46" opacity="0.6"/>
  </g>
</svg> 