<svg width="160" height="160" viewBox="0 0 160 160" fill="none" xmlns="http://www.w3.org/2000/svg">
  <path d="M0 80C0 35.8172 35.8172 0 80 0C124.183 0 160 35.8172 160 80C160 124.183 124.183 160 80 160C35.8172 160 0 124.183 0 80Z" fill="none"/>
  <g opacity="0.8">
    <path d="M10 70C30 50 60 40 90 50C60 60 40 80 10 70Z" fill="#5a6b46" opacity="0.6"/>
    <path d="M5 90C25 80 55 80 75 100C45 100 25 110 5 90Z" fill="#5a6b46" opacity="0.6"/>
    <path d="M20 40C40 30 70 40 80 70C50 60 30 60 20 40Z" fill="#5a6b46" opacity="0.6"/>
    <path d="M30 20C50 20 70 40 70 70C50 50 30 40 30 20Z" fill="#5a6b46" opacity="0.6"/>
    <path d="M50 10C70 20 80 50 70 80C60 60 40 40 50 10Z" fill="#5a6b46" opacity="0.6"/>
  </g>
</svg> 