<svg width="160" height="160" viewBox="0 0 160 160" fill="none" xmlns="http://www.w3.org/2000/svg">
  <path d="M0 80C0 124.183 35.8172 160 80 160C124.183 160 160 124.183 160 80C160 35.8172 124.183 0 80 0C35.8172 0 0 35.8172 0 80Z" fill="none"/>
  <g opacity="0.8">
    <path d="M10 90C30 110 60 120 90 110C60 100 40 80 10 90Z" fill="#5a6b46" opacity="0.6"/>
    <path d="M5 70C25 80 55 80 75 60C45 60 25 50 5 70Z" fill="#5a6b46" opacity="0.6"/>
    <path d="M20 120C40 130 70 120 80 90C50 100 30 100 20 120Z" fill="#5a6b46" opacity="0.6"/>
    <path d="M30 140C50 140 70 120 70 90C50 110 30 120 30 140Z" fill="#5a6b46" opacity="0.6"/>
    <path d="M50 150C70 140 80 110 70 80C60 100 40 120 50 150Z" fill="#5a6b46" opacity="0.6"/>
  </g>
</svg> 