<svg width="160" height="160" viewBox="0 0 160 160" fill="none" xmlns="http://www.w3.org/2000/svg">
  <path d="M160 80C160 35.8172 124.183 0 80 0C35.8172 0 0 35.8172 0 80C0 124.183 35.8172 160 80 160C124.183 160 160 124.183 160 80Z" fill="none"/>
  <g opacity="0.8">
    <path d="M150 70C130 50 100 40 70 50C100 60 120 80 150 70Z" fill="#5a6b46" opacity="0.6"/>
    <path d="M155 90C135 80 105 80 85 100C115 100 135 110 155 90Z" fill="#5a6b46" opacity="0.6"/>
    <path d="M140 40C120 30 90 40 80 70C110 60 130 60 140 40Z" fill="#5a6b46" opacity="0.6"/>
    <path d="M130 20C110 20 90 40 90 70C110 50 130 40 130 20Z" fill="#5a6b46" opacity="0.6"/>
    <path d="M110 10C90 20 80 50 90 80C100 60 120 40 110 10Z" fill="#5a6b46" opacity="0.6"/>
  </g>
</svg> 