<svg width="100" height="100" viewBox="0 0 100 100" fill="none" xmlns="http://www.w3.org/2000/svg">
  <rect width="100" height="100" fill="none"/>
  
  <!-- Small leaf pattern -->
  <g opacity="0.1">
    <!-- Top left leaf -->
    <path d="M20 20C25 15 35 18 40 25C35 28 25 28 20 20Z" fill="#5a6b46"/>
    
    <!-- Top right leaf -->
    <path d="M80 20C75 15 65 18 60 25C65 28 75 28 80 20Z" fill="#5a6b46"/>
    
    <!-- Bottom left leaf -->
    <path d="M20 80C25 85 35 82 40 75C35 72 25 72 20 80Z" fill="#5a6b46"/>
    
    <!-- Bottom right leaf -->
    <path d="M80 80C75 85 65 82 60 75C65 72 75 72 80 80Z" fill="#5a6b46"/>
    
    <!-- Center dot -->
    <circle cx="50" cy="50" r="2" fill="#5a6b46"/>
    
    <!-- Small dots -->
    <circle cx="20" cy="50" r="1.5" fill="#5a6b46"/>
    <circle cx="80" cy="50" r="1.5" fill="#5a6b46"/>
    <circle cx="50" cy="20" r="1.5" fill="#5a6b46"/>
    <circle cx="50" cy="80" r="1.5" fill="#5a6b46"/>
  </g>
</svg> 